<?xml version="1.0" encoding="UTF-8" standalone="no"?>
<svg
   viewBox="0 0 48 48"
   version="1.1"
   id="svg22"
   sodipodi:docname="tailscale.svg"
   inkscape:version="1.2.2 (b0a8486541, 2022-12-01)"
   xmlns:inkscape="http://www.inkscape.org/namespaces/inkscape"
   xmlns:sodipodi="http://sodipodi.sourceforge.net/DTD/sodipodi-0.dtd"
   xmlns="http://www.w3.org/2000/svg"
   xmlns:svg="http://www.w3.org/2000/svg">
  <defs
     id="defs26" />
  <sodipodi:namedview
     id="namedview24"
     pagecolor="#505050"
     bordercolor="#eeeeee"
     borderopacity="1"
     inkscape:showpageshadow="0"
     inkscape:pageopacity="0"
     inkscape:pagecheckerboard="0"
     inkscape:deskcolor="#505050"
     showgrid="false"
     inkscape:zoom="16.291667"
     inkscape:cx="24"
     inkscape:cy="24"
     inkscape:window-width="1920"
     inkscape:window-height="1011"
     inkscape:window-x="0"
     inkscape:window-y="0"
     inkscape:window-maximized="1"
     inkscape:current-layer="svg22" />
  <g
     fill="currentColor"
     transform="translate(-1.386 -1.22) scale(2.2171)"
     id="g20">
    <circle
       cx="3.4"
       cy="3.25"
       r="2.7"
       class="dot dot-a1"
       opacity=".2"
       id="circle2" />
    <circle
       cx="3.4"
       cy="11.3"
       r="2.7"
       class="dot dot-a2"
       id="circle4" />
    <circle
       cx="3.4"
       cy="19.5"
       r="2.7"
       class="dot dot-a3"
       opacity=".2"
       id="circle6" />
    <circle
       cx="11.5"
       cy="11.3"
       r="2.7"
       class="dot dot-b1"
       id="circle8" />
    <circle
       cx="11.5"
       cy="19.5"
       r="2.7"
       class="dot dot-b2"
       id="circle10" />
    <circle
       cx="11.5"
       cy="3.25"
       r="2.7"
       class="dot dot-b3"
       opacity=".2"
       id="circle12" />
    <circle
       cx="19.5"
       cy="3.25"
       r="2.7"
       class="dot dot-c1"
       opacity=".2"
       id="circle14" />
    <circle
       cx="19.5"
       cy="11.3"
       r="2.7"
       class="dot dot-c2"
       id="circle16" />
    <circle
       cx="19.5"
       cy="19.5"
       r="2.7"
       class="dot dot-c3"
       opacity=".2"
       id="circle18" />
  </g>
  <path
     style="fill:#ffffff;stroke-width:0.0613811"
     d="M 4.9827273,29.669961 C 3.7950081,29.415147 2.8205783,28.884594 1.9603194,28.024335 1.0734482,27.137464 0.55564683,26.166521 0.30201779,24.914811 0.16680883,24.247527 0.20862207,23.008682 0.38924197,22.330529 0.95316675,20.213224 2.6480136,18.568422 4.8184143,18.03214 5.4852645,17.867369 6.7173625,17.854153 7.380615,18.00466 c 2.3220178,0.526909 4.075098,2.280169 4.59891,4.599382 0.142009,0.628752 0.139757,1.837545 -0.0046,2.470129 -0.536013,2.348819 -2.3852813,4.160912 -4.6927021,4.598362 -0.6327019,0.119951 -1.7341517,0.118719 -2.2994945,-0.0026 z"
     id="path201" />
  <path
     style="fill:#ffffff;stroke-width:0.0613811"
     d="m 22.862282,29.65062 c -2.246028,-0.473996 -4.058579,-2.286118 -4.577536,-4.576451 -0.142003,-0.626711 -0.14304,-1.83807 -0.0021,-2.470129 0.419866,-1.883121 1.77507,-3.525872 3.501672,-4.244658 1.495724,-0.622672 3.195179,-0.62554 4.646747,-0.0078 1.656887,0.705069 2.974257,2.227181 3.439238,3.973753 0.181993,0.683607 0.224271,1.919775 0.08856,2.589519 -0.253629,1.25171 -0.771431,2.222653 -1.658302,3.109524 -0.874945,0.874945 -1.846174,1.398072 -3.061824,1.649172 -0.623549,0.128797 -1.707135,0.118361 -2.376444,-0.02289 z"
     id="path203" />
  <path
     style="fill:#ffffff;stroke-width:0.0613811"
     d="m 23.601023,47.930332 c -2.528265,-0.188877 -4.664522,-2.037708 -5.29024,-4.578456 -0.197502,-0.801962 -0.183613,-1.976953 0.03312,-2.801807 0.971734,-3.698285 5.044857,-5.552062 8.449211,-3.84544 0.594496,0.298024 1.081809,0.666259 1.595741,1.205811 0.757089,0.79483 1.205156,1.580861 1.485047,2.605171 0.120208,0.439925 0.141443,0.665077 0.141443,1.499734 0,0.834657 -0.02124,1.05981 -0.141443,1.499734 -0.292882,1.071856 -0.854047,2.011426 -1.65995,2.77929 -1.283466,1.222887 -2.824873,1.769542 -4.612929,1.635963 z"
     id="path205" />
  <path
     style="fill:#ffffff;stroke-width:0.0613811"
     d="m 40.603581,29.649558 c -2.24736,-0.480819 -3.991098,-2.196703 -4.556095,-4.483318 -0.162476,-0.65756 -0.178859,-1.89899 -0.03363,-2.548328 0.518686,-2.319107 2.285605,-4.088809 4.605529,-4.612783 0.628752,-0.142008 1.837546,-0.139756 2.470129,0.0046 2.226629,0.508128 3.921243,2.134566 4.525055,4.343008 0.11886,0.434735 0.139707,0.659447 0.13858,1.493808 -0.0011,0.833857 -0.02229,1.055143 -0.140176,1.466028 -0.328824,1.14604 -0.794192,1.943517 -1.599854,2.741587 -0.853622,0.845577 -1.841946,1.372859 -3.035263,1.619345 -0.626581,0.129424 -1.708411,0.118511 -2.374275,-0.02395 z"
     id="path207" />
  <path
     style="fill:#999999;stroke-width:0.0613811"
     d="M 5.7084399,47.96048 C 3.1648848,47.735892 1.0993509,46.023019 0.38839345,43.548758 0.26661428,43.124944 0.24747394,42.917997 0.24656966,42.015345 0.24533935,40.787252 0.33432983,40.38271 0.82717854,39.375959 1.4177653,38.169556 2.3239164,37.274761 3.5601023,36.677285 c 1.3342216,-0.644858 2.5311053,-0.78364 3.9472315,-0.457691 2.0474584,0.471262 3.6921332,2.004854 4.3343302,4.041585 0.443646,1.407027 0.310697,3.083961 -0.348325,4.393552 -0.815977,1.621486 -2.386221,2.84045 -4.0969196,3.180394 -0.5038195,0.100117 -1.3022627,0.159413 -1.6879795,0.125355 z"
     id="path347" />
  <path
     style="fill:#999999;stroke-width:0.0613811"
     d="M 5.4322251,11.904271 C 3.9713995,11.729019 2.4347198,10.872475 1.5129163,9.7196526 1.0683959,9.1637279 0.58879035,8.2271374 0.38610785,7.5191816 0.26435371,7.0939028 0.2455243,6.888372 0.2455243,5.9846547 c 0,-0.9079448 0.018421,-1.107114 0.14182379,-1.5334127 C 1.0431092,2.1858958 2.7741688,0.59186461 5.0946292,0.11658315 5.6201062,0.00895387 6.7785846,0.02695853 7.3657289,0.15187978 8.4892475,0.39092048 9.5074938,0.94102607 10.31754,1.7465892 c 1.030184,1.0244837 1.599867,2.201765 1.755603,3.6280512 0.317885,2.9113062 -1.602654,5.6581906 -4.4611851,6.3806866 -0.654156,0.165339 -1.5390549,0.225805 -2.1797328,0.148944 z"
     id="path349" />
  <path
     style="fill:#999999;stroke-width:0.0613811"
     d="M 23.409131,11.905668 C 20.197849,11.53058 17.821659,8.5475546 18.192549,5.3568671 c 0.166068,-1.4286539 0.715983,-2.5738294 1.720945,-3.5837977 2.861937,-2.8761959 7.740436,-2.07058652 9.520708,1.5721991 0.497183,1.017335 0.581758,1.4082808 0.577626,2.6700768 -0.0032,0.9870033 -0.01695,1.1179101 -0.169096,1.6132075 -0.72547,2.361767 -2.6844,4.0062322 -5.092145,4.2747122 -0.648218,0.07228 -0.741778,0.07245 -1.341456,0.0024 z"
     id="path351" />
  <path
     style="fill:#999999;stroke-width:0.0613811"
     d="M 41.148261,11.905668 C 38.834354,11.635396 36.869275,9.9935484 36.15735,7.7356978 35.113658,4.4256634 37.205997,0.88128221 40.634271,0.15187978 c 0.587144,-0.12492125 1.745623,-0.14292591 2.2711,-0.0352966 2.320561,0.47530215 4.054746,2.07242892 4.706639,4.33465882 0.122571,0.4253535 0.141181,0.6274811 0.141181,1.5334127 0,0.9059319 -0.01861,1.1080592 -0.141181,1.5334128 -0.695097,2.4121572 -2.681922,4.1130795 -5.122292,4.3851975 -0.648219,0.07228 -0.741779,0.07245 -1.341457,0.0024 z"
     id="path353" />
  <path
     style="fill:#b3b3b3;stroke-width:0.0613811"
     d="m 41.197638,47.934831 c -2.352076,-0.257519 -4.320038,-1.884171 -5.039302,-4.16532 -0.885321,-2.807799 0.498137,-5.919253 3.18358,-7.160004 2.968604,-1.371579 6.503621,-0.08579 7.888396,2.869243 0.437276,0.933123 0.522879,1.3484 0.522879,2.536595 0,1.188195 -0.0856,1.603473 -0.522879,2.536596 -1.071399,2.286306 -3.51792,3.65822 -6.032674,3.38289 z"
     id="path355" />
  <path
     style="fill:#b3b3b3;stroke-width:0.0613811"
     d="M 5.2498187,47.872986 C 4.0133578,47.651964 2.9502721,47.112686 2.0649119,46.257361 1.3302172,45.547589 0.85086598,44.782079 0.47648045,43.720682 0.31492028,43.262654 0.30795422,43.193642 0.30744083,42.046036 0.30682023,40.65879 0.37025598,40.36655 0.89368996,39.345269 1.4991073,38.164028 2.3564615,37.324538 3.5601023,36.734416 4.6021295,36.223531 5.031471,36.122161 6.1381074,36.125738 c 1.1107599,0.0036 1.6402036,0.122521 2.5864733,0.581006 2.6851913,1.301023 3.9695713,4.360923 3.0239523,7.20425 -0.622908,1.872983 -2.2600225,3.380064 -4.1745074,3.84293 -0.6004051,0.145161 -1.8267577,0.207983 -2.3242069,0.119062 z"
     id="path448" />
  <path
     style="fill:#b3b3b3;stroke-width:0.0613811"
     d="M 5.2271968,11.847949 C 4.0167927,11.627173 2.7686096,10.966507 1.8979402,10.085765 1.2601412,9.4405866 0.63404962,8.3155446 0.39699612,7.3886744 0.22524099,6.7171182 0.22560777,5.2507571 0.39769918,4.5778862 0.8432783,2.8356885 2.193547,1.2473244 3.8158951,0.55695329 4.7194756,0.17244528 5.1247252,0.09407812 6.168798,0.10194885 c 1.0984045,0.00828 1.5772456,0.10786626 2.4219185,0.50369325 1.8114515,0.8488751 3.0153665,2.394875 3.3823055,4.3433664 0.148049,0.7861586 0.0964,1.8906551 -0.122878,2.6277706 -0.612796,2.0599391 -2.2552742,3.6532239 -4.2761184,4.1480459 -0.5814347,0.142369 -1.870526,0.21 -2.3468288,0.123124 z"
     id="path450" />
  <path
     style="fill:#b3b3b3;stroke-width:0.0613811"
     d="M 23.026055,11.816754 C 20.791893,11.35096 19.060909,9.7583171 18.407777,7.5675695 18.179669,6.8024452 18.138414,5.6683266 18.308888,4.8491049 c 0.251793,-1.2100023 0.756279,-2.155667 1.607348,-3.0129934 2.16756,-2.18349528 5.55273,-2.35989421 7.958313,-0.4147024 0.803751,0.6499256 1.596516,1.8527789 1.935455,2.9366472 0.129822,0.4151466 0.14396,0.5748936 0.14396,1.6265984 0,1.0511945 -0.01419,1.2116532 -0.143801,1.6265985 -0.642045,2.0554103 -2.227576,3.5765878 -4.295559,4.1212078 -0.622676,0.163988 -1.898943,0.207217 -2.488549,0.08429 z"
     id="path452" />
  <path
     style="fill:#b3b3b3;stroke-width:0.0613811"
     d="M 40.664962,11.789093 C 38.512247,11.334416 36.812671,9.7481923 36.141764,7.5675695 35.989058,7.0712354 35.975797,6.944756 35.975797,5.9846547 c 0,-0.9601012 0.01326,-1.0865808 0.165967,-1.5829148 0.531442,-1.7273257 1.663129,-3.0444433 3.257592,-3.79135954 0.854119,-0.40010674 1.395287,-0.51060227 2.493227,-0.50906658 0.858114,0.0012 1.005577,0.0177599 1.503836,0.16887717 1.018066,0.30876935 1.79232,0.75867755 2.538669,1.47518565 0.752205,0.7221304 1.297803,1.6055186 1.613641,2.6126797 0.131077,0.417983 0.14428,0.5705331 0.143431,1.657289 -8.96e-4,1.1461135 -0.0081,1.2172131 -0.169039,1.6746463 -0.380297,1.0807145 -0.857913,1.8363456 -1.621886,2.5659704 -1.403644,1.340535 -3.391912,1.922681 -5.236273,1.533131 z"
     id="path454" />
</svg>
